# xmcd
#
# Track frame offsets: 
#        150
#        20141
#        52750
#        68859
#        90741
#        105078
#        116008
#        140460
#        159023
#        173998
#
# Disc length: 2736 seconds
#
# Revision: 0
# Processed by: cddbd v1.5.2PL0 Copyright (c) Steve Scherf et al.
# Submitted via: ExactAudioCopy v0.90b4
#
DISCID=760aae0a
DTITLE=Clan an Drumma - Tribal Eyes
DYEAR=2011
DGENRE=Celtic
TTITLE0=Tribal eyes
TTITLE1=Banners
TTITLE2=Vigeadail
TTITLE3=Haste ye
TTITLE4=The passing
TTITLE5=CPT Carswell
TTITLE6=Firedance
TTITLE7=Grey snoat
TTITLE8=Blessing to the rain
TTITLE9=Child of the drum
EXTD=
EXTT0=
EXTT1=
EXTT2=
EXTT3=
EXTT4=
EXTT5=
EXTT6=
EXTT7=
EXTT8=
EXTT9=
PLAYORDER=
